999
 GModeler-DXF Output
  0
SECTION
  2
HEADER
  9
$ACADVER
  1
AC1009
  9
$LIMMIN
 10
-204.900879
 20
-322.567719
  9
$LIMMAX
 10
204.900879
 20
363.854950
  9
$EXTMIN
 10
-204.900879
 20
-322.567719
  9
$EXTMAX
 10
204.900879
 20
363.854950
  9
$INSUNITS
 70
4
  0
ENDSEC
  0
SECTION
  2
CLASSES
  0
ENDSEC
  0
SECTION
  2
TABLES
  0
TABLE
  2
LTYPE
 70
3
  0
LTYPE
  2
CONTINUOUS
 70
64
  3
_____________
 72
65
 73
0
 40
0.0
  0
LTYPE
  2
DASHED
 70
64
  3
_ _ _ _ _ _ _
 72
65
 73
2
 40
0.375
 49
0.25
49
-0.125
  0
LTYPE
  2
DOTTED
 70
64
  3
. . . . . . .
 72
65
 73
2
 40
0.375
 49
0.0
 49
-0.25
  0
LTYPE
  2
CENTER
 70
64
  3
_ . _ . _ . _
 72
65
 73
4
 40
1.0
 49
0.5
 49
-0.25
 49
0.0
 49
-0.25
  0
ENDTAB
  0
ENDSEC
  0
SECTION
  2
BLOCKS
  0
ENDSEC
  0
SECTION
  2
ENTITIES
  0
ARC
  8
0
 62
0
  6
CONTINUOUS
 10
-312.19185649
 20
0.00000000
 30
0.00000000
210
0.00000000
220
0.00000000
230
1.00000000
 40
512.19185649
 50
0.00000000
 51
7.00128543
  0
ARC
  8
0
 62
0
  6
CONTINUOUS
 10
-266.64350597
 20
5.59367150
 30
0.00000000
210
-0.00000000
220
-0.00000000
230
1.00000000
 40
466.30131939
 50
7.00128543
 51
14.51427852
  0
ARC
  8
0
 62
0
  6
CONTINUOUS
 10
-227.43080253
 20
15.74519249
 30
0.00000000
210
0.00000000
220
0.00000000
230
1.00000000
 40
425.79589395
 50
14.51427852
 51
22.36964398
  0
ARC
  8
0
 62
0
  6
CONTINUOUS
 10
-133.71482481
 20
54.31405682
 30
0.00000000
210
-0.00000000
220
-0.00000000
230
1.00000000
 40
324.45369259
 50
22.36964398
 51
32.00538321
  0
ARC
  8
0
 62
0
  6
CONTINUOUS
 10
-90.03859856
 20
81.61169823
 30
0.00000000
210
0.00000000
220
0.00000000
230
1.00000000
 40
272.94860580
 50
32.00538321
 51
42.52117606
  0
ARC
  8
0
 62
0
  6
CONTINUOUS
 10
-26.99636356
 20
139.42214195
 30
0.00000000
210
-0.00000000
220
-0.00000000
230
1.00000000
 40
187.41281915
 50
42.52117606
 51
56.46590358
  0
ARC
  8
0
 62
0
  6
CONTINUOUS
 10
-9.13574198
 20
166.37173872
 30
0.00000000
210
0.00000000
220
0.00000000
230
1.00000000
 40
155.08198914
 50
56.46590358
 51
71.91718862
  0
ARC
  8
0
 62
0
  6
CONTINUOUS
 10
0.00000000
 20
194.35099778
 30
0.00000000
210
-0.00000000
220
-0.00000000
230
1.00000000
 40
125.64900222
 50
71.91718862
 51
90.00000000
  0
ARC
  8
0
 62
0
  6
CONTINUOUS
 10
0.00000000
 20
194.35099778
 30
0.00000000
210
0.00000000
220
-0.00000000
230
1.00000000
 40
125.64900222
 50
90.00000000
 51
108.08281138
  0
ARC
  8
0
 62
0
  6
CONTINUOUS
 10
9.13574198
 20
166.37173872
 30
0.00000000
210
-0.00000000
220
-0.00000000
230
1.00000000
 40
155.08198914
 50
108.08281138
 51
123.53409642
  0
ARC
  8
0
 62
0
  6
CONTINUOUS
 10
26.99636356
 20
139.42214195
 30
0.00000000
210
0.00000000
220
0.00000000
230
1.00000000
 40
187.41281915
 50
123.53409642
 51
137.47882394
  0
ARC
  8
0
 62
0
  6
CONTINUOUS
 10
90.03859856
 20
81.61169823
 30
0.00000000
210
-0.00000000
220
-0.00000000
230
1.00000000
 40
272.94860580
 50
137.47882394
 51
147.99461679
  0
ARC
  8
0
 62
0
  6
CONTINUOUS
 10
133.71482481
 20
54.31405682
 30
0.00000000
210
0.00000000
220
0.00000000
230
1.00000000
 40
324.45369259
 50
147.99461679
 51
157.63035602
  0
ARC
  8
0
 62
0
  6
CONTINUOUS
 10
227.43080253
 20
15.74519249
 30
0.00000000
210
-0.00000000
220
-0.00000000
230
1.00000000
 40
425.79589395
 50
157.63035602
 51
165.48572148
  0
ARC
  8
0
 62
0
  6
CONTINUOUS
 10
266.64350597
 20
5.59367150
 30
0.00000000
210
0.00000000
220
0.00000000
230
1.00000000
 40
466.30131939
 50
165.48572148
 51
172.99871457
  0
ARC
  8
0
 62
0
  6
CONTINUOUS
 10
312.19185649
 20
0.00000000
 30
0.00000000
210
-0.00000000
220
-0.00000000
230
1.00000000
 40
512.19185649
 50
172.99871457
 51
180.00000000
  0
ARC
  8
0
 62
0
  6
CONTINUOUS
 10
312.19185649
 20
0.00000000
 30
0.00000000
210
0.00000000
220
0.00000000
230
1.00000000
 40
512.19185649
 50
180.00000000
 51
-172.99871457
  0
ARC
  8
0
 62
0
  6
CONTINUOUS
 10
266.64350597
 20
-5.59367150
 30
0.00000000
210
-0.00000000
220
-0.00000000
230
1.00000000
 40
466.30131939
 50
-172.99871457
 51
-165.48572148
  0
ARC
  8
0
 62
0
  6
CONTINUOUS
 10
227.43080253
 20
-15.74519249
 30
0.00000000
210
0.00000000
220
0.00000000
230
1.00000000
 40
425.79589395
 50
-165.48572148
 51
-157.63035602
  0
ARC
  8
0
 62
0
  6
CONTINUOUS
 10
133.71482481
 20
-54.31405682
 30
0.00000000
210
-0.00000000
220
-0.00000000
230
1.00000000
 40
324.45369259
 50
-157.63035602
 51
-147.99461679
  0
ARC
  8
0
 62
0
  6
CONTINUOUS
 10
90.03859856
 20
-81.61169823
 30
0.00000000
210
0.00000000
220
0.00000000
230
1.00000000
 40
272.94860580
 50
-147.99461679
 51
-137.47882394
  0
ARC
  8
0
 62
0
  6
CONTINUOUS
 10
26.99636356
 20
-139.42214195
 30
0.00000000
210
-0.00000000
220
-0.00000000
230
1.00000000
 40
187.41281915
 50
-137.47882394
 51
-123.53409642
  0
ARC
  8
0
 62
0
  6
CONTINUOUS
 10
9.13574198
 20
-166.37173872
 30
0.00000000
210
0.00000000
220
0.00000000
230
1.00000000
 40
155.08198914
 50
-123.53409642
 51
-108.08281138
  0
ARC
  8
0
 62
0
  6
CONTINUOUS
 10
0.00000000
 20
-194.35099778
 30
0.00000000
210
-0.00000000
220
0.00000000
230
1.00000000
 40
125.64900222
 50
-108.08281138
 51
-90.00000000
  0
ARC
  8
0
 62
0
  6
CONTINUOUS
 10
0.00000000
 20
-194.35099778
 30
0.00000000
210
0.00000000
220
0.00000000
230
1.00000000
 40
125.64900222
 50
-90.00000000
 51
-71.91718862
  0
ARC
  8
0
 62
0
  6
CONTINUOUS
 10
-9.13574198
 20
-166.37173872
 30
0.00000000
210
-0.00000000
220
-0.00000000
230
1.00000000
 40
155.08198914
 50
-71.91718862
 51
-56.46590358
  0
ARC
  8
0
 62
0
  6
CONTINUOUS
 10
-26.99636356
 20
-139.42214195
 30
0.00000000
210
0.00000000
220
0.00000000
230
1.00000000
 40
187.41281915
 50
-56.46590358
 51
-42.52117606
  0
ARC
  8
0
 62
0
  6
CONTINUOUS
 10
-90.03859856
 20
-81.61169823
 30
0.00000000
210
-0.00000000
220
-0.00000000
230
1.00000000
 40
272.94860580
 50
-42.52117606
 51
-32.00538321
  0
ARC
  8
0
 62
0
  6
CONTINUOUS
 10
-133.71482481
 20
-54.31405682
 30
0.00000000
210
0.00000000
220
0.00000000
230
1.00000000
 40
324.45369259
 50
-32.00538321
 51
-22.36964398
  0
ARC
  8
0
 62
0
  6
CONTINUOUS
 10
-227.43080253
 20
-15.74519249
 30
0.00000000
210
-0.00000000
220
-0.00000000
230
1.00000000
 40
425.79589395
 50
-22.36964398
 51
-14.51427852
  0
ARC
  8
0
 62
0
  6
CONTINUOUS
 10
-266.64350597
 20
-5.59367150
 30
0.00000000
210
0.00000000
220
0.00000000
230
1.00000000
 40
466.30131939
 50
-14.51427852
 51
-7.00128543
  0
ARC
  8
0
 62
0
  6
CONTINUOUS
 10
-312.19185649
 20
0.00000000
 30
0.00000000
210
-0.00000000
220
-0.00000000
230
1.00000000
 40
512.19185649
 50
-7.00128543
 51
0.00000000
  0
CIRCLE
  8
0
 62
0
  6
CONTINUOUS
 10
0.00000000
 20
0.00000000
 30
0.00000000
210
0.00000000
220
0.00000000
230
1.00000000
40
10.000000
  0
ENDSEC
  0
SECTION
  2
OBJECTS
  0
ENDSEC
  0
EOF
